<svg width="1200" height="800" viewBox="0 0 1200 800" fill="none" xmlns="http://www.w3.org/2000/svg">
<rect width="1200" height="800" rx="48" fill="url(#paint0_linear_1_3)"/>
<circle cx="960" cy="156" r="94" fill="white" fill-opacity="0.92"/>
<circle cx="960" cy="156" r="132" stroke="#3192F7" stroke-opacity="0.22" stroke-width="24"/>
<rect x="118" y="144" width="246" height="28" rx="14" fill="#3192F7" fill-opacity="0.16"/>
<rect x="118" y="190" width="324" height="28" rx="14" fill="#78C7FF" fill-opacity="0.24"/>
<rect x="118" y="236" width="200" height="28" rx="14" fill="#09111A" fill-opacity="0.08"/>
<rect x="684" y="486" width="56" height="118" rx="20" fill="url(#paint1_linear_1_3)"/>
<rect x="760" y="432" width="56" height="172" rx="20" fill="url(#paint2_linear_1_3)"/>
<rect x="836" y="464" width="56" height="140" rx="20" fill="url(#paint3_linear_1_3)"/>
<rect x="912" y="378" width="56" height="226" rx="20" fill="url(#paint4_linear_1_3)"/>
<rect x="988" y="438" width="56" height="166" rx="20" fill="url(#paint5_linear_1_3)"/>
<rect x="88" y="516" width="336" height="188" rx="58" fill="white" fill-opacity="0.56"/>
<path d="M152 630C182.667 590 213.333 570 244 570C290 570 304 620 344 620C370.667 620 396 606.667 420 580" stroke="#3192F7" stroke-width="20" stroke-linecap="round"/>
<path d="M170 606C178 606 184 612 184 620C184 628 178 634 170 634C162 634 156 628 156 620C156 612 162 606 170 606Z" fill="#3192F7"/>
<path d="M270 546C278 546 284 552 284 560C284 568 278 574 270 574C262 574 256 568 256 560C256 552 262 546 270 546Z" fill="#78C7FF"/>
<path d="M344 606C352 606 358 612 358 620C358 628 352 634 344 634C336 634 330 628 330 620C330 612 336 606 344 606Z" fill="#3192F7"/>
<path d="M416 566C424 566 430 572 430 580C430 588 424 594 416 594C408 594 402 588 402 580C402 572 408 566 416 566Z" fill="#78C7FF"/>
<defs>
<linearGradient id="paint0_linear_1_3" x1="130" y1="88" x2="1038" y2="732" gradientUnits="userSpaceOnUse">
<stop stop-color="#E9F5FF"/>
<stop offset="0.52" stop-color="#F8FCFF"/>
<stop offset="1" stop-color="#EEF8FF"/>
</linearGradient>
<linearGradient id="paint1_linear_1_3" x1="712" y1="486" x2="712" y2="604" gradientUnits="userSpaceOnUse">
<stop stop-color="#3192F7"/>
<stop offset="1" stop-color="#78C7FF" stop-opacity="0.52"/>
</linearGradient>
<linearGradient id="paint2_linear_1_3" x1="788" y1="432" x2="788" y2="604" gradientUnits="userSpaceOnUse">
<stop stop-color="#3192F7"/>
<stop offset="1" stop-color="#78C7FF" stop-opacity="0.52"/>
</linearGradient>
<linearGradient id="paint3_linear_1_3" x1="864" y1="464" x2="864" y2="604" gradientUnits="userSpaceOnUse">
<stop stop-color="#3192F7"/>
<stop offset="1" stop-color="#78C7FF" stop-opacity="0.52"/>
</linearGradient>
<linearGradient id="paint4_linear_1_3" x1="940" y1="378" x2="940" y2="604" gradientUnits="userSpaceOnUse">
<stop stop-color="#3192F7"/>
<stop offset="1" stop-color="#78C7FF" stop-opacity="0.52"/>
</linearGradient>
<linearGradient id="paint5_linear_1_3" x1="1016" y1="438" x2="1016" y2="604" gradientUnits="userSpaceOnUse">
<stop stop-color="#3192F7"/>
<stop offset="1" stop-color="#78C7FF" stop-opacity="0.52"/>
</linearGradient>
</defs>
</svg>
